<svg id="Layer_5" enable-background="new 0 0 64 64" height="512" viewBox="0 0 64 64" width="512"
     xmlns="http://www.w3.org/2000/svg">
    <g>
        <g>
            <g>
                <path d="m30 50-4 12h-24l4-12h10z" fill="#ffeaa7"/>
            </g>
            <g>
                <path d="m50 50-4 12h-4l-4-12h2z" fill="#ffeaa7"/>
            </g>
            <g>
                <path d="m38 50 4 12h-16l4-12h6z" fill="#fcd770"/>
            </g>
            <g>
                <path d="m58 50 4 12h-16l4-12h6z" fill="#fcd770"/>
            </g>
            <g>
                <path d="m44 38-4 12h-2-2-6-14l4-12z" fill="#ffeaa7"/>
            </g>
            <g>
                <path d="m52 38 4 12h-6-10l4-12z" fill="#fcd770"/>
            </g>
            <g>
                <path d="m54 8-2.8 14-3.6-3.6-15.6 15.6-7-7-15 15-4-4 19-19 7 7 11.6-11.6-3.6-3.6z" fill="#ff826e"/>
            </g>
        </g>
        <g>
            <path d="m58.721 49h-2l-4-12h-33.442l-4 12h-10l-4.667 14h62.775zm1.891 12h-13.225l3.333-10h6.559zm-5.999-12h-13.226l3.333-10h6.559zm-33.892-10h21.892l-3.333 10h-21.893zm-14 12h21.892l-3.333 10h-21.892zm20.666 10 3.333-10h6.559l3.333 10zm12.001-10h9.225l-3.333 10h-2.559z"/>
            <path d="m10 43.414 15-15 7 7 15.6-15.6 4.215 4.214 3.46-17.303-17.303 3.46 4.214 4.215-10.186 10.186-7-7-20.414 20.414zm22-16 13.014-13.014-2.985-2.986 10.697-2.14-2.14 10.697-2.986-2.985-15.6 15.6-7-7-15 15-2.586-2.586 17.586-17.586z"/>
            <path d="m12 9h2v3h-2z"/>
            <path d="m8.818 10.319h2v3h-2z" transform="matrix(.707 -.707 .707 .707 -5.481 10.404)"/>
            <path d="m7 14h3v2h-3z"/>
            <path d="m8.319 17.182h3v2h-3z" transform="matrix(.707 -.707 .707 .707 -9.981 12.268)"/>
            <path d="m12 18h2v3h-2z"/>
            <path d="m15.182 16.682h2v3h-2z" transform="matrix(.707 -.707 .707 .707 -8.117 16.767)"/>
            <path d="m16 14h3v2h-3z"/>
            <path d="m14.682 10.818h3v2h-3z" transform="matrix(.707 -.707 .707 .707 -3.617 14.904)"/>
            <path d="m31 7h2v2h-2z"/>
            <path d="m31 11h2v2h-2z"/>
            <path d="m33 9h2v2h-2z"/>
            <path d="m29 9h2v2h-2z"/>
            <path d="m57 25h2v2h-2z"/>
            <path d="m57 29h2v2h-2z"/>
            <path d="m59 27h2v2h-2z"/>
            <path d="m55 27h2v2h-2z"/>
            <path d="m59 1h2v2h-2z"/>
            <path d="m59 5h2v2h-2z"/>
            <path d="m61 3h2v2h-2z"/>
            <path d="m57 3h2v2h-2z"/>
            <path d="m18 1h2v2h-2z"/>
            <path d="m18 5h2v2h-2z"/>
            <path d="m20 3h2v2h-2z"/>
            <path d="m16 3h2v2h-2z"/>
            <path d="m3 28h2v2h-2z"/>
            <path d="m3 32h2v2h-2z"/>
            <path d="m5 30h2v2h-2z"/>
            <path d="m1 30h2v2h-2z"/>
            <path d="m26 41h2v2h-2z"/>
            <path d="m22 41h2v2h-2z"/>
            <path d="m30 41h2v2h-2z"/>
            <path d="m8 53h2v2h-2z"/>
            <path d="m12 53h2v2h-2z"/>
            <path d="m16 53h2v2h-2z"/>
        </g>
    </g>
</svg>